<svg width="80" height="60" viewBox="0 0 80 60" fill="none" xmlns="http://www.w3.org/2000/svg">
<path d="M15.3474 51.2856C12.8034 51.2856 10.5114 50.7336 8.47141 49.6296C6.43141 48.5016 4.82341 46.9536 3.64741 44.9856C2.49541 43.0176 1.91941 40.8216 1.91941 38.3976C1.91941 35.9736 2.49541 33.7776 3.64741 31.8096C4.82341 29.8416 6.43141 28.3056 8.47141 27.2016C10.5114 26.0736 12.8034 25.5096 15.3474 25.5096C17.8674 25.5096 20.1474 26.0736 22.1874 27.2016C24.2274 28.3056 25.8234 29.8416 26.9754 31.8096C28.1274 33.7536 28.7034 35.9496 28.7034 38.3976C28.7034 40.8456 28.1274 43.0536 26.9754 45.0216C25.8234 46.9656 24.2274 48.5016 22.1874 49.6296C20.1474 50.7336 17.8674 51.2856 15.3474 51.2856ZM15.3474 48.0816C17.1954 48.0816 18.8514 47.6616 20.3154 46.8216C21.8034 45.9816 22.9674 44.8296 23.8074 43.3656C24.6714 41.8776 25.1034 40.2216 25.1034 38.3976C25.1034 36.5736 24.6714 34.9296 23.8074 33.4656C22.9674 31.9776 21.8034 30.8136 20.3154 29.9736C18.8514 29.1336 17.1954 28.7136 15.3474 28.7136C13.4994 28.7136 11.8194 29.1336 10.3074 29.9736C8.81941 30.8136 7.64341 31.9776 6.77941 33.4656C5.93941 34.9296 5.51941 36.5736 5.51941 38.3976C5.51941 40.2216 5.93941 41.8776 6.77941 43.3656C7.64341 44.8296 8.81941 45.9816 10.3074 46.8216C11.8194 47.6616 13.4994 48.0816 15.3474 48.0816ZM57.5698 50.9976L57.5338 32.6376L48.4258 47.9376H46.7698L37.6618 32.7456V50.9976H34.2058V25.7976H37.1578L47.6698 43.5096L58.0378 25.7976H60.9898L61.0258 50.9976H57.5698Z" fill="#333333"/>
<path d="M76.6783 15.6298L75.2649 15.1976C75.0688 15.1377 74.8618 15.1941 74.7294 15.3433C74.386 15.7309 74.0092 16.0994 73.6093 16.4387C70.6452 18.9537 66.9246 19.8125 62.85 18.9233C58.7957 18.0386 56.9322 15.692 54.353 12.4441C54.1686 12.2118 53.981 11.9756 53.7891 11.7357C53.7673 11.7083 53.7416 11.6724 53.7144 11.6344C53.6428 11.5343 53.5536 11.4098 53.4281 11.287C53.2576 11.1201 53.0719 10.9646 52.8761 10.825C52.4716 10.5364 52.2018 10.082 52.1361 9.57837L51.7024 6.25664C51.6836 6.11264 51.6098 5.97958 51.4971 5.88658C51.3846 5.79352 51.2423 5.74818 51.1017 5.76061L48.9617 5.94883C48.6692 5.97446 48.4637 6.23839 48.5027 6.5381L48.9187 9.72438C48.9642 10.0732 48.8514 10.428 48.6092 10.6977C48.2393 11.1095 48.0509 11.6178 48.0642 12.1673C48.2326 19.1161 52.8916 24.2594 60.5271 25.9255C63.8224 26.6445 67.3266 26.2145 70.3941 24.7146C71.0115 24.4127 71.5957 24.0749 72.1441 23.7029C72.9085 23.1844 73.6034 22.5995 74.2215 21.9536C75.3264 20.7991 76.1295 19.5062 76.6087 18.111C76.8142 17.5124 76.971 16.8917 77.0744 16.266C77.1203 15.989 76.948 15.7123 76.6783 15.6298ZM49.6332 6.98755L50.7136 6.89253L51.0011 9.09432L50.5648 9.10498L49.9117 9.12096L49.6332 6.98755ZM71.5314 22.7872C68.5608 24.8018 64.5296 25.6956 60.7032 24.8607C53.613 23.3135 49.2877 18.5775 49.1329 12.1918C49.1246 11.8488 49.2808 11.6009 49.4132 11.4535C49.728 11.1029 49.9232 10.6684 49.9802 10.2102L51.1886 10.1806C51.3811 10.7938 51.7672 11.3339 52.2911 11.7076C52.4387 11.8129 52.5786 11.9299 52.7067 12.0553C52.7595 12.107 52.8063 12.1726 52.8607 12.2485C52.8956 12.2973 52.9317 12.3477 52.9729 12.3992C53.1639 12.6383 53.3508 12.8735 53.5345 13.1049C56.1583 16.409 58.2307 19.0186 62.6737 19.9881C64.9004 20.474 67.0495 20.4727 69.0614 19.9844C70.8865 19.5414 72.5656 18.7073 74.0574 17.5031L74.0933 17.5206L74.2848 17.6142C73.5154 18.8093 72.5337 19.8047 71.3974 20.5753C68.9006 22.2686 65.662 22.879 62.3163 22.149C57.1068 21.0123 53.3962 18.2086 51.8678 14.2544C51.758 13.9702 51.4468 13.8198 51.1728 13.9184C50.8987 14.0169 50.7657 14.3273 50.8755 14.6116C52.548 18.9387 56.5485 21.9938 62.1401 23.2138C64.8685 23.8091 67.5783 23.5923 69.9764 22.5867C70.7048 22.2813 71.3903 21.9101 72.0272 21.478C73.3342 20.5915 74.4353 19.4491 75.2776 18.0992L75.424 18.1707C74.6693 20.0172 73.2854 21.5976 71.5314 22.7872ZM75.7706 17.1544L75.5521 17.0477L74.9213 16.7396C75.0568 16.6079 75.1891 16.4733 75.3175 16.3361L75.9274 16.5226C75.8817 16.7348 75.8294 16.9456 75.7706 17.1544Z" fill="black"/>
</svg>
